<?xml version="1.0" encoding="UTF-8"?><svg id="plant2" xmlns="http://www.w3.org/2000/svg" viewBox="0 0 95.55 167.51"><defs><style>.plant2-cls-1{fill:#7743db;}.plant2-cls-2{fill:#ffe9b1;}.plant2-cls-3{fill:none;stroke:#b69df4;stroke-miterlimit:10;stroke-width:5px;}</style></defs><path class="plant2-cls-3" d="M53.08,2.51c-4.45-.6-16.01,20.27-12,39,.92,4.31,2.04,5.55,8,25,1.88,6.13,2.82,9.19,3,10,0,0,4.29,18.95-2.7,46.86-.23,.9-.31,1.14-.3,1.14,.11,.03,11.65-20.44,10-42-1.49-19.44-12.24-20.76-10-36,1.71-11.65,8.85-16.74,8-31-.06-.94-.81-12.57-4-13Z"/><path class="plant2-cls-1" d="M29.15,25.83c-.78,.75-3.37,3.63-1.09,14.56,1.38,6.61,2.73,7.45,5.44,15.6,3.44,10.35,2.15,11.64,5.44,18.72,3.26,7.04,4.72,6.17,6.52,11.44,2.09,6.13,.57,8.65,1.09,19.76,.18,3.8,.91,15.56,2.17,15.6,1.57,.05,7.03-17.9,3.26-37.44-3.17-16.46-9.45-16.18-11.96-33.28-2.06-14.04,.55-25.24-4.35-27.04-2.24-.82-5.08,.68-6.52,2.08Z"/><path class="plant2-cls-3" d="M22.08,45.51c-3.17,1.72-3.06,8.86-1,14,1.48,3.68,2.84,3.55,7,9,4.98,6.52,7.63,12.74,9,16,1.89,4.51,1.33,4.42,4,11,2.38,5.88,3.14,6.72,4,10,1.75,6.69,.93,12,1,12,.1,0,1.89-9.67,0-22-1.87-12.16-4.87-10.91-9-27-2.93-11.39-3.1-18.53-9-22-.58-.34-3.76-2.21-6-1Z"/><path class="plant2-cls-1" d="M14,43.47C11.93,32.43,.86,25.55,0,43.47c-.3,6.2,16.79,44.99,21.08,50.04,2.41,2.84,4.22,2.49,8,5,10.98,7.31,12.33,21.41,14,21,1.13-.28,1.65-6.99-1-14-3.78-10-11.04-12.75-17-19-15.2-15.94-7.01-21.45-11.08-43.04Z"/><path class="plant2-cls-1" d="M84.68,16.57c-4.17-1.17-14.5,9.59-18.68,19.9-4.11,10.15-4.03,24.24-5,30-1.25,7.41-1.49,11.15-2.23,18.52-1.84,18.39-5.27,37.56-5.63,37.52-.62-.08-4.36-60.69,20.27-78.35,2.65-1.9,12.06-7.92,13.51-17.66,.6-4.04-.08-9.32-2.25-9.93Z"/><path class="plant2-cls-3" d="M73.08,57.51c1.49-.12,3.19,.68,4,2,1.79,2.91-1.62,6.92-7,17-4.92,9.22-14.96,41.26-15.94,41-1.4-.37,8.51-36.8,9.94-43,1.14-4.96,3.82-16.58,9-17Z"/><path class="plant2-cls-3" d="M81.08,94.51c2.21-6.04,3.52-7.5,4-8,3.07-3.22,5.43-2.31,7-5,1.96-3.37,.74-9-2-10-1.82-.66-3.86,.89-4,1-2.52,1.97-1.94,5.07-3,9-1.5,5.58-4,4.3-7,11-2.58,5.76-1.47,8.34-5,14-.61,.97-1.5,2.39-3,4-4.87,5.23-10.22,6.14-10,7,.2,.81,5.29,1.29,10-1,6.36-3.09,9.1-9.79,10-12,1.4-3.43,.77-3.89,3-10Z"/><path class="plant2-cls-1" d="M75.08,59.51c4.39-6.47,11.12-12.21,13-11,1.36,.88,.1,5.38-1,8-2.93,6.97-7.34,6.9-11,13-3.37,5.62-.42,6.99-4,16-2.83,7.13-4.67,6.25-7,13-2.59,7.51-.72,9.78-4,14-2.75,3.54-8,7-8,7h0s2.63-9.58,4-14c3.58-11.59,5.69-11.29,10-23,4.78-12.98,3.05-15.71,8-23Z"/><polygon class="plant2-cls-2" points="22.08 117.51 35.07 167.51 65.84 167.51 79.18 117.51 22.08 117.51"/></svg>