<?xml version="1.0" encoding="UTF-8"?>
<svg xmlns="http://www.w3.org/2000/svg" xmlns:xlink="http://www.w3.org/1999/xlink" width="27px" height="47px" viewBox="0 0 27 47" version="1.1">
<g id="surface1">
<path style="fill:none;stroke-width:5;stroke-linecap:butt;stroke-linejoin:miter;stroke:rgb(71.372549%,61.568627%,95.686275%);stroke-opacity:1;stroke-miterlimit:10;" d="M 53.078929 2.505967 C 48.6336 1.90732 37.070203 22.776459 41.086233 41.515527 C 42.000226 45.817438 43.121944 47.056499 49.076748 66.505591 C 50.960127 72.645211 51.901817 75.694138 52.081846 76.515539 C 52.081846 76.515539 56.374844 95.463437 49.381412 123.363207 C 49.14599 124.26814 49.076748 124.504815 49.076748 124.504815 C 49.187535 124.546581 60.723235 104.067258 59.075278 82.515938 C 57.593501 63.066847 46.83331 61.744253 49.076748 46.51354 C 50.793947 34.860791 57.925862 29.765324 57.081111 15.509154 C 57.025718 14.576377 56.264057 2.937551 53.078929 2.505967 Z M 53.078929 2.505967 " transform="matrix(0.282073,0,0,0.28058,0.0239762,0)"/>
<path style=" stroke:none;fill-rule:nonzero;fill:rgb(46.666667%,26.27451%,85.882353%);fill-opacity:1;" d="M 8.246094 7.246094 C 8.027344 7.457031 7.296875 8.265625 7.9375 11.332031 C 8.328125 13.1875 8.710938 13.421875 9.472656 15.710938 C 10.445312 18.613281 10.078125 18.976562 11.007812 20.960938 C 11.925781 22.9375 12.339844 22.691406 12.847656 24.171875 C 13.4375 25.890625 13.007812 26.597656 13.15625 29.714844 C 13.207031 30.78125 13.410156 34.082031 13.765625 34.09375 C 14.210938 34.105469 15.75 29.070312 14.6875 23.589844 C 13.792969 18.96875 12.019531 19.046875 11.3125 14.25 C 10.730469 10.3125 11.46875 7.167969 10.085938 6.664062 C 9.453125 6.433594 8.652344 6.855469 8.246094 7.246094 Z M 8.246094 7.246094 "/>
<path style="fill:none;stroke-width:5;stroke-linecap:butt;stroke-linejoin:miter;stroke:rgb(71.372549%,61.568627%,95.686275%);stroke-opacity:1;stroke-miterlimit:10;" d="M 22.086256 45.511153 C 18.914977 47.223564 19.025764 54.365571 21.075324 59.516726 C 22.557101 63.192145 23.914242 63.066847 28.082604 68.510365 C 33.054172 75.02588 35.713061 81.249033 37.084051 84.50679 C 38.967431 89.017532 38.413495 88.933999 41.086233 95.505203 C 43.454306 101.394226 44.215966 102.229549 45.074566 105.51515 C 46.83331 112.19773 46.016256 117.51595 46.085498 117.51595 C 46.182436 117.51595 47.968877 107.840131 46.085498 95.505203 C 44.215966 83.351261 41.210868 84.604245 37.084051 68.510365 C 34.148194 57.122135 33.982014 49.980128 28.082604 46.51354 C 27.500972 46.165489 24.315845 44.299935 22.086256 45.511153 Z M 22.086256 45.511153 " transform="matrix(0.282073,0,0,0.28058,0.0239762,0)"/>
<path style=" stroke:none;fill-rule:nonzero;fill:rgb(46.666667%,26.27451%,85.882353%);fill-opacity:1;" d="M 3.972656 12.195312 C 3.390625 9.097656 0.265625 7.167969 0.0234375 12.195312 C -0.0625 13.9375 4.761719 24.820312 5.96875 26.238281 C 6.648438 27.035156 7.160156 26.9375 8.226562 27.640625 C 11.324219 29.691406 11.703125 33.648438 12.175781 33.53125 C 12.496094 33.453125 12.640625 31.570312 11.894531 29.605469 C 10.828125 26.796875 8.78125 26.027344 7.097656 24.273438 C 2.8125 19.800781 5.121094 18.253906 3.972656 12.195312 Z M 3.972656 12.195312 "/>
<path style=" stroke:none;fill-rule:nonzero;fill:rgb(46.666667%,26.27451%,85.882353%);fill-opacity:1;" d="M 23.910156 4.648438 C 22.734375 4.320312 19.820312 7.339844 18.640625 10.234375 C 17.480469 13.082031 17.503906 17.035156 17.230469 18.648438 C 16.878906 20.730469 16.808594 21.777344 16.601562 23.847656 C 16.082031 29.007812 15.113281 34.386719 15.011719 34.375 C 14.839844 34.351562 13.785156 17.34375 20.730469 12.390625 C 21.476562 11.855469 24.132812 10.167969 24.542969 7.433594 C 24.710938 6.300781 24.519531 4.820312 23.90625 4.648438 Z M 23.910156 4.648438 "/>
<path style="fill:none;stroke-width:5;stroke-linecap:butt;stroke-linejoin:miter;stroke:rgb(71.372549%,61.568627%,95.686275%);stroke-opacity:1;stroke-miterlimit:10;" d="M 73.07599 57.511952 C 74.571615 57.386654 76.274965 58.194132 77.078171 59.516726 C 78.864612 62.426433 75.457911 66.435981 70.08474 76.515539 C 65.154716 85.73193 55.114641 117.766547 54.145255 117.51595 C 52.746568 117.140055 62.64816 80.706073 64.074543 74.510765 C 65.223958 69.554518 67.896696 57.929614 73.07599 57.511952 Z M 73.07599 57.511952 " transform="matrix(0.282073,0,0,0.28058,0.0239762,0)"/>
<path style="fill:none;stroke-width:5;stroke-linecap:butt;stroke-linejoin:miter;stroke:rgb(71.372549%,61.568627%,95.686275%);stroke-opacity:1;stroke-miterlimit:10;" d="M 81.080353 94.516738 C 83.296094 88.474572 84.597841 87.012758 85.082535 86.511564 C 88.156875 83.295573 90.5111 84.200505 92.075966 81.513551 C 94.042436 78.144417 92.823779 72.505991 90.0818 71.503604 C 88.253814 70.849268 86.218102 72.394614 86.079618 72.505991 C 83.559213 74.482921 84.140845 77.573614 83.07452 81.513551 C 81.578895 87.09629 79.086186 85.815462 76.081088 92.511964 C 73.505289 98.275689 74.61316 100.851267 71.081823 106.503615 C 70.472494 107.478158 69.586198 108.898206 68.076725 110.513163 C 63.215943 115.733929 57.85662 116.652783 58.078194 117.51595 C 58.28592 118.323428 63.368275 118.796778 68.076725 116.513563 C 74.433131 113.42287 77.17511 106.726368 78.075255 104.512763 C 79.473941 101.074019 78.850764 100.614592 81.080353 94.516738 Z M 81.080353 94.516738 " transform="matrix(0.282073,0,0,0.28058,0.0239762,0)"/>
<path style=" stroke:none;fill-rule:nonzero;fill:rgb(46.666667%,26.27451%,85.882353%);fill-opacity:1;" d="M 21.203125 16.699219 C 22.441406 14.882812 24.339844 13.269531 24.867188 13.609375 C 25.253906 13.859375 24.898438 15.121094 24.585938 15.855469 C 23.761719 17.8125 22.515625 17.792969 21.484375 19.503906 C 20.535156 21.078125 21.367188 21.464844 20.355469 23.992188 C 19.558594 25.992188 19.039062 25.746094 18.382812 27.640625 C 17.652344 29.746094 18.179688 30.382812 17.253906 31.566406 C 16.476562 32.5625 14.996094 33.53125 14.996094 33.53125 C 14.996094 33.53125 15.738281 30.84375 16.125 29.605469 C 17.132812 26.351562 17.730469 26.4375 18.945312 23.152344 C 20.292969 19.507812 19.804688 18.742188 21.203125 16.699219 Z M 21.203125 16.699219 "/>
<path style=" stroke:none;fill-rule:nonzero;fill:rgb(100%,91.372549%,69.411765%);fill-opacity:1;" d="M 6.253906 32.972656 L 9.917969 47 L 18.59375 47 L 22.359375 32.972656 Z M 6.253906 32.972656 "/>
</g>
</svg>
