<?xml version="1.0" encoding="UTF-8"?><svg id="uuid-35eb9ec0-3cd0-4d98-a809-d9d5e4cb6e67" xmlns="http://www.w3.org/2000/svg" viewBox="0 0 694.49 489.59"><defs><style>.uuid-627a5a85-c592-4040-bc9f-0618dc4ccc7b{fill:#7743db;}.uuid-2ae91c25-8897-4a56-80d5-01b1d6eaa52d{fill:#b69df4;}.uuid-1dd51f76-bde5-411e-86ff-f34d91f5b1c4{fill:#ffe9b1;}.uuid-9ea89512-053a-4267-bba0-6bfc3eea4ca5{fill:#232163;}.uuid-cbddc7b9-934f-489c-95f7-ed3b5db480b1{fill:none;stroke:#ffe9b1;stroke-miterlimit:10;stroke-width:7px;}.uuid-e3d44a77-f8e9-41c3-bfa4-671d70ceffd0{fill:#fcfdf2;}</style></defs><rect class="uuid-e3d44a77-f8e9-41c3-bfa4-671d70ceffd0" x="685.49" y="363.54" width="5" height="14" rx="2.5" ry="2.5"/><polygon class="uuid-1dd51f76-bde5-411e-86ff-f34d91f5b1c4" points="181.49 296.54 207.49 311.54 194.47 285.15 181.49 296.54"/><path class="uuid-2ae91c25-8897-4a56-80d5-01b1d6eaa52d" d="M43.63,153.59C23.46,131.09-39.79,49.93,37.12,8.73c.24-.13,.49-.24,.74-.34C73.7-5.47,103.62-7.28,141.49,43.54c2.16,2.9,10.09,13.62,11.85,16.16,9.39,13.59,13.38,22.06,15.04,26.36,.78,2.04,.42,4.33-.97,6.02h0c-2.67,3.26-7.75,2.87-9.9-.75C143.32,67.38,96.17-3.64,48.49,20.54c-59.03,29.93-8.15,100.64,10.68,123.64,2.82,3.44,1.07,8.65-3.25,9.71l-6.33,1.55c-2.18,.53-4.46-.18-5.96-1.84Z"/><path class="uuid-2ae91c25-8897-4a56-80d5-01b1d6eaa52d" d="M273.2,138.43c21.92,38.42,33.47,91.39-14.1,117.28-40.13,21.84-79.77-8.17-101.69-46.59-21.92-38.42-38.82-89.32,5.39-116.21,51.99-31.62,88.48,7.1,110.4,45.52Z"/><path class="uuid-627a5a85-c592-4040-bc9f-0618dc4ccc7b" d="M258.14,145.94c21.65,37.96,34.33,89.58-8.46,112.76-36.1,19.55-73.74-10.97-95.4-48.93-21.65-37.96-39.17-87.78,.48-112.06,46.63-28.55,81.72,10.27,103.37,48.23Z"/><path class="uuid-9ea89512-053a-4267-bba0-6bfc3eea4ca5" d="M236.36,157.43c16.94,29.7,27.85,69.53-2.34,85.79-25.47,13.72-53.74-10.84-70.68-40.55-16.94-29.7-31.29-68.32-3.41-85.53,32.79-20.23,59.49,10.58,76.43,40.28Z"/><path class="uuid-627a5a85-c592-4040-bc9f-0618dc4ccc7b" d="M175.1,156.18c53.39,43.36,51.69,94.69,11.39,137.36-34,36-81.27,8.56-115.61-22.64C36.54,239.71,.52,202.81,38.49,161.54c46-50,86.42-46.13,136.61-5.36Z"/><path class="uuid-2ae91c25-8897-4a56-80d5-01b1d6eaa52d" d="M160.18,174.92c34.29,31.15,62.58,80.59,22.28,123.26-34,36-83.69,19.5-117.98-11.64C30.2,255.39-2.88,209.9,33.68,167.39c43-50,92.21-23.61,126.5,7.53Z"/><path class="uuid-e3d44a77-f8e9-41c3-bfa4-671d70ceffd0" d="M79.49,171.71c34.44-.87,77.06,38.33,85,86.83,4.82,29.44,27-46-26-84s-95.63-1.91-59-2.83Z"/><path class="uuid-cbddc7b9-934f-489c-95f7-ed3b5db480b1" d="M198.67,302.84c32.81,34.7,75.31,208.2,176.31,180.2s149-70,95-144-.5-145.5,111.5-110.5,107,124,107,124"/><rect class="uuid-1dd51f76-bde5-411e-86ff-f34d91f5b1c4" x="681.49" y="341.54" width="13" height="25"/></svg>