<?xml version="1.0" encoding="UTF-8"?><svg id="plant1" xmlns="http://www.w3.org/2000/svg" viewBox="0 0 145.52 298.41"><defs><style>.plant1-cls-1{fill:#7743db;}.plant1-cls-2{fill:#b69df4;}.plant1-cls-3{fill:#a68bf4;}.plant1-cls-4{fill:#e5c7e2;}</style></defs><path class="plant1-cls-1" d="M8.75,72.91c-5.68,3.2-6.94,15.03-5,23,1.13,4.65,2.6,4.91,3,9,.76,7.77-4.19,10.38-6,19-.32,1.54-2.65,12.6,3,20,5.41,7.09,13.01,4.12,18,12,3.25,5.13,3.04,11.13,3,12-.32,6.96-4.09,9.43-3,13,1.08,3.54,5.78,2.29,16,7,6.94,3.2,6.7,4.53,10,5,8.85,1.26,20.22-6.96,20-14-.19-6.02-8.68-6.4-11-15-.99-3.69,.32-8.51,3-18,3.45-12.24,5.49-14.34,4-17-3.31-5.9-15.58,.35-22-6-6.66-6.58,2.35-17.45-3-31-5.36-13.58-22.52-23.21-30-19Z"/><path class="plant1-cls-1" d="M126.75,.91c-7.3-5.27-30.95,13.63-36,27-4.06,10.74-2,20-2,20h0c1.73,9.67,6.5,12.05,5,17-2.27,7.51-14.1,4.87-22,15-4,5.13-6.53,12.94-5,20,1.7,7.86,7.25,9.31,10,18,.83,2.61,2.82,9.78,0,17-2.33,5.98-5.67,6.01-7,11-1.69,6.37,1.33,15.38,7,18,4.46,2.06,7.89-1.06,28-12,16.65-9.06,19.7-9.86,21-14,2.88-9.16-9.22-14.26-8-26,.98-9.41,9.13-9.78,19-26,5-8.22,10.91-17.94,8-27-2.72-8.47-10.31-7.5-16-16-10.79-16.13,4.91-37.01-2-42Z"/><path class="plant1-cls-2" d="M24.48,106.79c7.42,18.27,17.87,45,25.14,63.67,4.14,10.63,8.62,21.13,12.22,31.96,3.54,10.73,7.09,21.9,9.64,32.91,0,0-.47,.17-.47,.17-3.94-7.66-7.33-15.51-10.65-23.43-5.57-13.06-10-26.81-14.49-40.24-6.5-19.02-15.7-46.01-21.86-64.87,0,0,.47-.17,.47-.17h0Z"/><path class="plant1-cls-3" d="M118.94,53.79c-2.26,12.35-5.54,24.76-8.98,36.82-3.29,12.2-8.31,23.85-12.21,35.85-5.21,16.01-8.33,32.62-12.99,48.79-6.58,24.39-14.28,48.46-23.74,71.91,0,0-.48-.14-.48-.14,4.98-24.79,11.78-49.13,19.69-73.12,5-16.07,11.52-31.66,15.97-47.9,3.34-12.16,5.55-24.66,9.51-36.66,.92-2.98,2.88-9.05,3.88-12.01,2.71-7.97,5.53-15.9,8.86-23.69,0,0,.48,.14,.48,.14h0Z"/><g><path class="plant1-cls-4" d="M42.29,297.91c-3.32,0-6.47-1.76-8.2-4.59l-6.18-10.08c-5.34-8.7-8.16-18.7-8.16-28.91v-20.8c0-5.31,4.32-9.62,9.62-9.62h54.95c5.31,0,9.62,4.32,9.62,9.62v17.93c0,12.08-3.45,23.84-9.98,34.01l-5.15,8.02c-1.78,2.77-4.8,4.42-8.1,4.42h-28.43Z"/><path class="cls-4" d="M84.32,224.41c5.03,0,9.12,4.09,9.12,9.12v17.93c0,11.99-3.42,23.65-9.9,33.74l-5.15,8.02c-1.69,2.63-4.56,4.19-7.68,4.19h-28.43c-3.15,0-6.13-1.67-7.78-4.35l-6.18-10.08c-5.29-8.62-8.08-18.53-8.08-28.65v-20.8c0-5.03,4.09-9.12,9.12-9.12h54.95m0-1H29.37c-5.59,0-10.12,4.53-10.12,10.12v20.8c0,10.3,2.85,20.39,8.23,29.17l6.18,10.08c1.84,3,5.11,4.83,8.63,4.83h28.43c3.45,0,6.66-1.75,8.52-4.65l5.15-8.02c6.57-10.23,10.06-22.13,10.06-34.28v-17.93c0-5.59-4.53-10.12-10.12-10.12h0Z"/></g></svg>