<?xml version="1.0" encoding="UTF-8"?><svg id="planet1" xmlns="http://www.w3.org/2000/svg" viewBox="0 0 203 203"><defs><style>.planet1-cls-1{fill:#7743db;}.planet1-cls-2{fill:#b69df4;}.planet1-cls-3{fill:#3b3486;}.planet1-cls-4{fill:#232163;}</style></defs><circle class="planet1-cls-2" cx="101.5" cy="101.5" r="101.5"/><g><circle class="cls-1" cx="97.5" cy="49.5" r="19.5"/><path class="planet1-cls-3" d="M97.5,32c9.65,0,17.5,7.85,17.5,17.5s-7.85,17.5-17.5,17.5-17.5-7.85-17.5-17.5,7.85-17.5,17.5-17.5m0-4c-11.87,0-21.5,9.63-21.5,21.5s9.63,21.5,21.5,21.5,21.5-9.63,21.5-21.5-9.63-21.5-21.5-21.5h0Z"/></g><g><circle class="cls-3" cx="119" cy="119" r="7"/><path class="cls-4" d="M119,114c2.76,0,5,2.24,5,5s-2.24,5-5,5-5-2.24-5-5,2.24-5,5-5m0-4c-4.97,0-9,4.03-9,9s4.03,9,9,9,9-4.03,9-9-4.03-9-9-9h0Z"/></g><circle class="cls-1" cx="39.28" cy="67.32" r="13.68"/><circle class="cls-1" cx="170.64" cy="75.85" r="6.64"/><path class="planet1-cls-1" d="M112.5,149c-53.85,0-97.89-41.93-101.28-94.92C4.05,67.99,0,83.77,0,100.5c0,56.06,45.44,101.5,101.5,101.5s101.5-45.44,101.5-101.5c0-2.21-.08-4.4-.22-6.58-16.85,32.71-50.95,55.08-90.28,55.08Z"/><g><circle class="planet1-cls-3" cx="52.5" cy="158.5" r="12.5"/><path class="planet1-cls-4" d="M52.5,148c5.79,0,10.5,4.71,10.5,10.5s-4.71,10.5-10.5,10.5-10.5-4.71-10.5-10.5,4.71-10.5,10.5-10.5m0-4c-8.01,0-14.5,6.49-14.5,14.5s6.49,14.5,14.5,14.5,14.5-6.49,14.5-14.5-6.49-14.5-14.5-14.5h0Z"/></g></svg>